<svg xmlns="http://www.w3.org/2000/svg" viewBox="0 0 800 400">
  <rect width="800" height="400" fill="#f0f0f0"/>
  <text x="400" y="30" font-family="Arial" font-size="20" text-anchor="middle" font-weight="bold">UI Comparison of Payment Gateways</text>
  
  <!-- BitPay -->
  <rect x="50" y="60" width="160" height="300" fill="#fff" stroke="#000"/>
  <text x="130" y="80" font-family="Arial" font-size="16" text-anchor="middle">BitPay</text>
  <rect x="70" y="100" width="120" height="20" fill="#4CAF50"/>
  <rect x="70" y="130" width="120" height="20" fill="#2196F3"/>
  <rect x="70" y="160" width="120" height="20" fill="#FFC107"/>
  
  <!-- Coinbase Commerce -->
  <rect x="230" y="60" width="160" height="300" fill="#fff" stroke="#000"/>
  <text x="310" y="80" font-family="Arial" font-size="16" text-anchor="middle">Coinbase Commerce</text>
  <rect x="250" y="100" width="120" height="20" fill="#4CAF50"/>
  <rect x="250" y="130" width="120" height="20" fill="#2196F3"/>
  <rect x="250" y="160" width="120" height="20" fill="#FFC107"/>
  
  <!-- CoinPayments -->
  <rect x="410" y="60" width="160" height="300" fill="#fff" stroke="#000"/>
  <text x="490" y="80" font-family="Arial" font-size="16" text-anchor="middle">CoinPayments</text>
  <rect x="430" y="100" width="120" height="20" fill="#4CAF50"/>
  <rect x="430" y="130" width="120" height="20" fill="#2196F3"/>
  <rect x="430" y="160" width="120" height="20" fill="#FFC107"/>
  <rect x="430" y="190" width="120" height="20" fill="#F44336"/>
  
  <!-- BTCPay Server -->
  <rect x="590" y="60" width="160" height="300" fill="#fff" stroke="#000"/>
  <text x="670" y="80" font-family="Arial" font-size="16" text-anchor="middle">BTCPay Server</text>
  <rect x="610" y="100" width="120" height="20" fill="#4CAF50"/>
  <rect x="610" y="130" width="120" height="20" fill="#2196F3"/>
  <rect x="610" y="160" width="120" height="20" fill="#FFC107"/>
  <rect x="610" y="190" width="120" height="20" fill="#F44336"/>
  <rect x="610" y="220" width="120" height="20" fill="#9C27B0"/>
</svg>
